<?xml version="1.0" encoding="utf-8"?>
<!-- Generator: Adobe Illustrator 19.2.1, SVG Export Plug-In . SVG Version: 6.00 Build 0)  -->
<svg version="1.1" id="Layer_1" xmlns="http://www.w3.org/2000/svg" xmlns:xlink="http://www.w3.org/1999/xlink" x="0px" y="0px"
	 viewBox="0 0 240 63.5" style="enable-background:new 0 0 240 63.5;" xml:space="preserve">
<style type="text/css">
	.st0{fill:#C6D2D9;}
	.st1{fill:none;stroke:#577483;stroke-width:1.256;stroke-miterlimit:10;}
	.st2{fill:#577483;}
	.st3{fill:none;stroke:#577483;stroke-width:1.099;stroke-miterlimit:10;}
	.st4{enable-background:new    ;}
</style>
<rect x="64.6" y="134.4" class="st0" width="235.8" height="17"/>
<g>
	<circle class="st1" cx="196.4" cy="144.7" r="1.2"/>
	<rect x="192.7" y="146.9" class="st2" width="7.6" height="1.5"/>
	<polygon class="st2" points="195.7,146.2 197.1,146.2 197.4,157.5 195.4,157.5 	"/>
	<polyline class="st2" points="189.2,154.9 192.1,154.6 190.4,152.8 	"/>
	<path class="st3" d="M190.6,154c0,3.4,2.9,5.6,5.9,2.1"/>
	<polyline class="st2" points="202.7,152.8 201,154.6 204,154.9 	"/>
	<path class="st3" d="M196.7,156.1c2.9,3.4,5.9,1.2,5.9-2.1"/>
</g>
<g class="st4">
	<path class="st2" d="M116.4,141h0.1l3.5,7.2l3.5-7.2h0.1l2,10.1H124l-1.1-5.5l-2.8,5.9H120l-2.9-5.9l-1.1,5.5h-1.6L116.4,141z"/>
	<path class="st2" d="M142.7,151.1l4.8-10.1h0.1l4.7,10.1h-1.8l-0.8-1.7h-4.5l-0.8,1.7H142.7z M149.1,148l-1.6-3.7l-1.6,3.7H149.1z"
		/>
	<path class="st2" d="M170.1,141.3h2.3c1.2,0,2.2,0.1,3.1,0.7c0.7,0.5,1.1,1.3,1.1,2.1c0,1.3-0.8,2.3-2.1,2.7l3.2,4.3h-2l-3-4.1
		h-0.8v4.1h-1.7V141.3z M172.5,145.8c1.5,0,2.3-0.6,2.3-1.6c0-1.1-0.8-1.5-2.4-1.5h-0.6v3.1H172.5z"/>
	<path class="st2" d="M216.7,141h0.2l6.3,6.6v-6.2h1.7v10.1h-0.2l-6.3-6.6v6.2h-1.7V141z"/>
	<path class="st2" d="M242.7,151.1l4.8-10.1h0.1l4.7,10.1h-1.8l-0.8-1.7h-4.5l-0.8,1.7H242.7z M249.1,148l-1.6-3.7l-1.6,3.7H249.1z"
		/>
</g>
<text transform="matrix(1 0 0 1 114.0039 214.3551)" style="font-family:'Geometric415BT-MediumA'; font-size:13.8613px; letter-spacing:16;">MARINA </text>
<text transform="matrix(1 0 0 1 61.88 135.5861)" class="st2" style="font-family:'CarpenterICG'; font-size:59.8089px;">Marrriba</text>
<g>
	<path class="st0" d="M75.9,15.7c-0.2,0-0.8,0.4-1.2,0.8h1.4c0.1-0.2,0.2-0.4,0.2-0.5C76.4,15.9,76.1,15.7,75.9,15.7z"/>
	<path class="st0" d="M211,9.5c-1.4,0-4.4,3-7.3,7.1h5.5c1.5-2.4,2.4-4.6,2.4-6C211.6,10.1,211.5,9.5,211,9.5z"/>
	<polygon class="st0" points="83.4,49.8 86.6,49.8 85,46.2 	"/>
	<path class="st0" d="M74.6,16.7c-1.1,1-2.7,2.6-3.9,4.7c2.1-1.6,3.5-2.9,4.8-4.1c0.3-0.2,0.5-0.5,0.7-0.7h-1.4
		C74.7,16.6,74.6,16.7,74.6,16.7z"/>
	<path class="st0" d="M87.8,36c0,0.4,0.5,0.5,0.8,0.5c2.1-0.2,5.2-1.6,6.7-3.1c-0.4-0.2-0.8-0.3-1.3-0.3
		C91.1,33.1,87.8,34.9,87.8,36z"/>
	<path class="st0" d="M197.4,29.7c4-2.9,8.9-8.4,11.8-13.2h-5.5C200.8,20.6,198.1,25.7,197.4,29.7z"/>
	<path class="st0" d="M12.9,39c6.9,0,15.3-2.2,20-4.4c-2-2.7-8.9-4.3-15-4.3c-8.7,0-14.5,3.3-14.5,5.5C3.4,37.5,8,39,12.9,39z"/>
	<path class="st0" d="M112.4,46.1c0-1.1-0.8-1.5-2.4-1.5h-0.6v3.1h0.8C111.6,47.6,112.4,47.1,112.4,46.1z"/>
	<path class="st0" d="M222.3,36c0,0.4,0.5,0.5,0.8,0.5c2.1-0.2,5.2-1.6,6.7-3.1c-0.4-0.2-0.8-0.3-1.3-0.3
		C225.6,33.1,222.3,34.9,222.3,36z"/>
	<path class="st0" d="M236.9,36.5c-2.4,0.5-5.8,1-7.2,1c-0.8,0-1.1-0.1-1.3-0.4c-0.3-0.3-0.1-0.8-0.6-0.8c-1.1,0-2.2,1.7-5.1,1.7
		c-1.2,0-3.1-0.5-3.1-2c0-0.5,0.2-0.8,0.5-1.2c0,0-3.4,0.5-5.5,1.1l-1.2,0.3v0l-1.3,0.3c-1.3,0.3-2.7,0.4-4.2,0.4
		c-1.3,0-2.6-0.5-3.2-1.3c-1.1,0.8-2.6,1.8-4.3,1.8c-2.8,0-4.9-1.8-5.6-4.5c-1.6,1.1-4.6,2.4-7.2,3l-1.1,0.3v0l-1.3,0.3
		c-2.7,0.6-6.8,1-8,1c-0.9,0-1.3-0.6-1.3-1.3c0-0.6,0.7-1,0.4-1.5c-0.1-0.3-3.3,0.5-6,1.2l-1.3,0.3v0l-1.3,0.3
		c-1.9,0.4-4.7,0.7-6.3,0.7c-1.4,0-3.1-0.5-3.1-2.1c0-0.8,0.3-1.4,0.6-2c-0.5,0.1-0.8,0.2-1.3,0.2c-0.9,0-1.4-0.2-2-0.6
		c-1,1.3-4.5,2.5-7.2,3.2l-1.2,0.3v0l-1.3,0.3c-1.9,0.4-4.7,0.7-6.3,0.7c-1.4,0-3.1-0.5-3.1-2.1c0-0.8,0.3-1.4,0.6-2
		c-0.5,0.1-0.8,0.2-1.3,0.2c-0.9,0-1.4-0.2-2-0.6c-1,1.3-4.5,2.5-7.2,3.2l-1.2,0.3v0l-1.3,0.3c-1.9,0.4-4.7,0.7-6.3,0.7
		c-1.4,0-3.1-0.5-3.1-2.1c0-0.8,0.3-1.4,0.6-2c-0.5,0.1-0.8,0.2-1.3,0.2c-0.9,0-1.4-0.2-2-0.6c-1,1.3-4.5,2.5-7.2,3.2l-1.1,0.2v0.1
		l-1.3,0.3c-2.4,0.5-5.8,1-7.2,1c-0.8,0-1.1-0.1-1.3-0.4c-0.3-0.3-0.1-0.8-0.6-0.8c-1.1,0-2.2,1.7-5.1,1.7c-1.2,0-3.1-0.5-3.1-2
		c0-0.5,0.2-0.8,0.5-1.2c0,0-3.4,0.5-5.5,1.1l-1.1,0.3v0l-1.3,0.3c-2.6,0.6-6.4,1.3-9,1.3c-2.5,0-5.9-1.1-5.9-5.6
		c0-1,0.1-1.8,0.5-2.6c-1.3,1-3.9,3.2-6.6,5.3c-2.4,1.9-4.5,3.5-6.2,3.5c-1.1,0-1.9-1.3-1.9-2.4c0-2.7,1.3-4.7,2.5-6.3
		C53.5,26,57.5,22,61,18.4c-6.5,4.4-16.7,11.9-26,16.6c0.4,0.9,0.6,1.6,0.6,2.6c0,2.3-1.9,4.5-3.9,4.5c-1.3,0-2.6-1.1-2.6-2.2
		c0-0.4,0.2-0.8,0.7-0.8c0.7,0,1,1.1,2.2,1.1c1.1,0,2.3-1.3,2.3-2.8c0-0.7-0.2-1.4-0.6-1.8c-4.8,2-11.4,4.8-21.1,4.8
		c-4.9,0-9.5-1.3-10.5-3.6V54h130.9h1.8h103.1V36.3L236.9,36.5z M61.5,53l-1.1-5.5l-2.8,5.9h-0.2l-2.9-5.9L53.6,53H52l2-10.1h0.1
		l3.5,7.2l3.5-7.2h0.1l2,10.1H61.5z M88,53l-0.8-1.7h-4.5L82,53h-1.7L85,42.8h0.1L89.8,53H88z M113.1,53l-3-4.1h-0.8V53h-1.7v-9.8
		h2.3c1.2,0,2.2,0.1,3.1,0.7c0.7,0.5,1.1,1.3,1.1,2.1c0,1.3-0.8,2.3-2.1,2.7l3.2,4.3H113.1z M162.5,53.3h-0.2l-6.3-6.6V53h-1.7V42.8
		h0.2l6.3,6.6v-6.2h1.7V53.3z M188,53l-0.8-1.7h-4.5L182,53h-1.7l4.8-10.1h0.1l4.7,10.1H188z"/>
	<polygon class="st0" points="183.4,49.8 186.6,49.8 185,46.2 	"/>
	<polygon class="st2" points="61.1,42.8 57.6,50 54.1,42.8 54,42.8 52,53 53.6,53 54.7,47.4 57.5,53.3 57.7,53.3 60.5,47.4 61.5,53 
		63.2,53 61.2,42.8 	"/>
	<path class="st2" d="M85,42.8L80.2,53H82l0.8-1.7h4.5L88,53h1.8l-4.7-10.1H85z M83.4,49.8l1.6-3.7l1.6,3.7H83.4z"/>
	<path class="st2" d="M114.1,45.9c0-0.8-0.4-1.6-1.1-2.1c-0.8-0.6-1.8-0.7-3.1-0.7h-2.3V53h1.7v-4.1h0.8l3,4.1h2l-3.2-4.3
		C113.3,48.2,114.1,47.2,114.1,45.9z M110.1,47.6h-0.8v-3.1h0.6c1.6,0,2.4,0.4,2.4,1.5C112.4,47.1,111.6,47.6,110.1,47.6z"/>
	<polygon class="st2" points="160.8,49.4 154.5,42.8 154.3,42.8 154.3,53 155.9,53 155.9,46.7 162.3,53.3 162.5,53.3 162.5,43.2 
		160.8,43.2 	"/>
	<path class="st2" d="M185,42.8L180.2,53h1.7l0.8-1.7h4.5L188,53h1.8l-4.7-10.1H185z M183.4,49.8l1.6-3.7l1.6,3.7H183.4z"/>
	<path class="st2" d="M67.2,13.8c3.1-2.2,6.3-4.7,8.7-6.8c0.7-0.6,1.5-1.2,1.5-2c0-0.5-0.5-0.8-1-0.8c-0.7,0-1.6,0.5-2.3,1.1
		c-1.6,1.4-4.3,3.9-6.3,6.2c-1.6,1.2-3.9,3-6.7,5h3.8C65.8,15.5,66.6,14.6,67.2,13.8z"/>
	<path class="st2" d="M2,35.9c0,0.3,0.1,0.7,0.2,1v-2.1C2,35.2,2,35.5,2,35.9z"/>
	<path class="st2" d="M75.9,15.7c0.2,0,0.4,0.2,0.4,0.3c0,0.1-0.1,0.3-0.2,0.5h1.4c0.4-0.6,0.7-1.2,0.7-1.9c0-0.4-0.1-0.9-0.6-0.9
		c-0.8,0-1.8,0.8-2.7,1.5c-0.5,0.4-1.1,0.9-1.6,1.3h1.4C75.2,16.2,75.7,15.7,75.9,15.7z"/>
	<path class="st2" d="M12.7,40.4c9.7,0,16.3-2.8,21.1-4.8c0.4,0.4,0.6,1.1,0.6,1.8c0,1.4-1.2,2.8-2.3,2.8c-1.1,0-1.4-1.1-2.2-1.1
		c-0.5,0-0.7,0.4-0.7,0.8c0,1.1,1.3,2.2,2.6,2.2c2,0,3.9-2.2,3.9-4.5c0-1-0.2-1.7-0.6-2.6c9.2-4.7,19.5-12.1,26-16.6
		C57.5,22,53.5,26,50.9,29.6c-1.1,1.6-2.5,3.6-2.5,6.3c0,1.1,0.8,2.4,1.9,2.4c1.7,0,3.8-1.7,6.2-3.5c2.6-2,5.3-4.3,6.6-5.3
		c-0.4,0.8-0.5,1.6-0.5,2.6c0,4.5,3.4,5.6,5.9,5.6c2.6,0,6.4-0.7,9-1.3l1.3-0.3v0l-0.2,0v-1.3l-1.1,0.3c-2.1,0.5-5.1,1-6.8,1
		c-3.4,0-5.3-1.7-5.3-4.5c0-2.1,1.2-4.1,2.4-6.4c2.5-2,6.7-5.3,9-8c0.2-0.2,0.4-0.5,0.5-0.7h-1.4c-0.2,0.2-0.4,0.5-0.7,0.7
		c-1.3,1.1-2.7,2.5-4.8,4.1c1.2-2.1,2.8-3.7,3.9-4.7c0,0,1.3-0.9,1.4-1l-2.7,0.8c-3.3,2.9-6,6.3-8.7,10c-2.7,2.3-7.1,6-10,8
		c-1.4,1-2.9,2-3.6,2c-0.2,0-0.3-0.3-0.3-0.4c0-1.8,8.8-13,14.2-19.6h-3.8c-7.5,5.5-18.4,12.9-27,17.3c-2.8-3.1-9.3-5.3-15.9-5.3
		c-7.5,0-14.9,2.6-16.2,6.3v2.1C3.2,39.2,7.8,40.4,12.7,40.4z M17.9,30.2c6.1,0,13,1.6,15,4.3c-4.7,2.3-13.2,4.4-20,4.4
		c-4.9,0-9.5-1.5-9.5-3.2C3.4,33.6,9.3,30.2,17.9,30.2z"/>
	<path class="st2" d="M103.4,34.9l-1,0.2c-2.3,0.5-5.4,1-6.2,1c-0.3,0-0.5-0.2-0.5-0.5c0-0.8,1-1.3,1-2c0-0.2-0.2-0.5-0.4-0.7
		c0.3-0.2,0.5-0.3,0.5-0.7c0-0.6-1.5-0.7-2.6-0.7c-2.3,0-4.5,0.8-6.6,1.5c0,0-4.8,0.8-7.5,1.4l-1.3,0.3v0l0.2,0v1.3l1.1-0.3
		c2.1-0.5,5.5-1.1,5.5-1.1C85.2,35.2,85,35.5,85,36c0,1.5,1.9,2,3.1,2c3,0,4.1-1.7,5.1-1.7c0.5,0,0.3,0.5,0.6,0.8
		c0.2,0.3,0.5,0.4,1.3,0.4c1.4,0,4.8-0.5,7.2-1l1.3-0.3v-0.1l-0.2,0.1V34.9z M88.6,36.5c-0.3,0-0.8-0.1-0.8-0.5
		c0-1.1,3.3-2.9,6.2-2.9c0.5,0,0.9,0.1,1.3,0.3C93.8,34.9,90.7,36.3,88.6,36.5z"/>
	<polygon class="st2" points="78.7,34.9 78.7,36.2 78.9,36.2 78.9,34.9 	"/>
	<path class="st2" d="M125.2,34.9l-1.1,0.3c-1.7,0.4-4.1,0.8-5.3,0.8c-1.1,0-2-0.2-2-0.7c0-0.5,0.5-1.4,1-2c0.5-0.6,1.1-1,1.1-1.4
		c0-0.4-0.2-0.4-0.7-0.3c-1.1,0.3-2.8,0.7-3.6,0.7c-0.7,0-1.2-0.1-1.6-0.5c0.1-0.3,0.1-0.5,0.1-0.8c0-0.5-0.3-1-0.8-1
		c-0.6,0-1,0.7-1,1.3c0,0.3,0.1,0.9,0.1,0.9c-1.1,1-4.5,2-6.6,2.5l-1.3,0.3v0.1l0.2-0.1v1.3l1.1-0.2c2.7-0.7,6.3-1.9,7.2-3.2
		c0.6,0.4,1.1,0.6,2,0.6c0.5,0,0.8-0.1,1.3-0.2c-0.3,0.5-0.6,1.2-0.6,2c0,1.6,1.6,2.1,3.1,2.1c1.6,0,4.4-0.3,6.3-0.7l1.3-0.3v0
		l-0.1,0V34.9z"/>
	<polygon class="st2" points="103.4,34.9 103.4,36.2 103.6,36.1 103.6,34.9 	"/>
	<path class="st2" d="M147,34.9l-1.1,0.3c-1.7,0.4-4.1,0.8-5.3,0.8c-1.1,0-2-0.2-2-0.7c0-0.5,0.5-1.4,1-2c0.5-0.6,1.1-1,1.1-1.4
		c0-0.4-0.2-0.4-0.7-0.3c-1.1,0.3-2.8,0.7-3.6,0.7c-0.7,0-1.2-0.1-1.6-0.5c0.1-0.3,0.1-0.5,0.1-0.8c0-0.5-0.3-1-0.8-1
		c-0.6,0-1,0.7-1,1.3c0,0.3,0.1,0.9,0.1,0.9c-1.1,1-4.5,2-6.6,2.5l-1.3,0.3v0l0.1,0v1.3l1.2-0.3c2.7-0.7,6.3-1.9,7.2-3.2
		c0.6,0.4,1.1,0.6,2,0.6c0.5,0,0.8-0.1,1.3-0.2c-0.3,0.5-0.6,1.2-0.6,2c0,1.6,1.6,2.1,3.1,2.1c1.6,0,4.4-0.3,6.3-0.7l1.3-0.3v0
		l-0.1,0V34.9z"/>
	<polygon class="st2" points="125.2,34.9 125.2,36.2 125.3,36.2 125.3,34.9 	"/>
	<path class="st2" d="M169,34.9l-1.3,0.3c-1.7,0.4-4.1,0.8-5.3,0.8c-1.1,0-2-0.2-2-0.7c0-0.5,0.5-1.4,1-2c0.5-0.6,1.1-1,1.1-1.4
		c0-0.4-0.2-0.4-0.7-0.3c-1.1,0.3-2.8,0.7-3.6,0.7c-0.7,0-1.2-0.1-1.6-0.5c0.1-0.3,0.1-0.5,0.1-0.8c0-0.5-0.3-1-0.8-1
		c-0.6,0-1,0.7-1,1.3c0,0.3,0.1,0.9,0.1,0.9c-1.1,1-4.5,2-6.6,2.5l-1.3,0.3v0l0.1,0v1.3l1.2-0.3c2.7-0.7,6.3-1.9,7.2-3.2
		c0.6,0.4,1.1,0.6,2,0.6c0.5,0,0.8-0.1,1.3-0.2c-0.3,0.5-0.6,1.2-0.6,2c0,1.6,1.6,2.1,3.1,2.1c1.6,0,4.4-0.3,6.3-0.7l1.3-0.3v0l0,0
		V34.9z"/>
	<polygon class="st2" points="147,34.9 147,36.2 147.2,36.2 147.2,34.9 	"/>
	<path class="st2" d="M186.3,34.9l-1.1,0.3c-2.7,0.7-7.4,1.4-7.8,1c-0.5-0.6,2.9-2,2.9-2.9c0-0.3-0.5-0.4-0.8-0.4
		c-0.8,0-6,0.9-9.2,1.7l-1.3,0.3v0l0,0v1.3l1.3-0.3c2.7-0.7,5.9-1.5,6-1.2c0.3,0.5-0.4,0.9-0.4,1.5c0,0.7,0.4,1.3,1.3,1.3
		c1.2,0,5.3-0.4,8-1l1.3-0.3v0l-0.2,0V34.9z"/>
	<path class="st2" d="M183.6,20c0,0.3,0.4,0.5,0.6,0.5c0.5,0,1-0.7,1.4-1.1c0.5-0.7,1-1.2,1-1.8c0-0.6-0.4-1.1-1-1.1
		C184.2,16.6,183.6,19.3,183.6,20z"/>
	<polygon class="st2" points="169,34.9 169,36.2 169,36.2 169,34.9 	"/>
	<path class="st2" d="M211,9.5c0.4,0,0.6,0.5,0.6,1c0,1.5-0.9,3.6-2.4,6h1.3c1.3-2.5,2.1-4.7,2.1-6.5c0-0.9-0.5-2-1.4-2
		c-1.6,0-6,3.6-9.8,8.5h2.3C206.6,12.5,209.7,9.5,211,9.5z"/>
	<path class="st2" d="M187.6,34.6l-1.3,0.3v0l0.2,0v1.3l1.1-0.3c2.6-0.6,5.6-1.9,7.2-3c0.7,2.7,2.8,4.5,5.6,4.5c1.7,0,3.2-1,4.3-1.8
		c0.6,0.8,1.9,1.3,3.2,1.3c1.5,0,2.9-0.1,4.2-0.4l1.3-0.3v0l-0.1,0v-1.3l-1.1,0.3c-1.4,0.4-3.1,0.5-4.1,0.5c-1,0-1.9-0.4-2.5-1.2
		c0.5-0.6,0.8-1.3,0.8-2c0-0.5-0.2-1.4-0.8-1.4c-1,0-1.3,2.2-1.3,3.5c-1.1,0.8-2.1,1.6-3.5,1.6c-2.1,0-4.1-1.9-3.6-4.7
		c5.1-3.3,10.5-9.5,13.4-14.8h-1.3c-2.9,4.7-7.8,10.3-11.8,13.2c0.7-4,3.4-9.1,6.3-13.2h-2.3c-3.6,4.6-6.8,10.3-6.8,15.1
		C192.5,32.9,189.7,34.1,187.6,34.6z"/>
	<polygon class="st2" points="186.3,34.9 186.3,36.2 186.5,36.2 186.5,34.9 	"/>
	<polygon class="st2" points="238.1,34.9 237.9,34.9 237.9,36.3 238.1,36.2 	"/>
	<path class="st2" d="M236.9,35.2c-2.3,0.5-5.4,1-6.2,1c-0.3,0-0.5-0.2-0.5-0.5c0-0.8,1-1.3,1-2c0-0.2-0.2-0.5-0.4-0.7
		c0.3-0.2,0.5-0.3,0.5-0.7c0-0.6-1.5-0.7-2.6-0.7c-2.3,0-4.5,0.8-6.6,1.5c0,0-4.8,0.8-7.5,1.4l-1.3,0.3v0l0.1,0v1.3l1.2-0.3
		c2.1-0.5,5.5-1.1,5.5-1.1c-0.4,0.4-0.5,0.7-0.5,1.2c0,1.5,1.9,2,3.1,2c3,0,4.1-1.7,5.1-1.7c0.5,0,0.3,0.5,0.6,0.8
		c0.2,0.3,0.5,0.4,1.3,0.4c1.4,0,4.8-0.5,7.2-1l1-0.2v-1.3L236.9,35.2z M223.1,36.5c-0.3,0-0.8-0.1-0.8-0.5c0-1.1,3.3-2.9,6.2-2.9
		c0.5,0,0.9,0.1,1.3,0.3C228.3,34.9,225.2,36.3,223.1,36.5z"/>
	<polygon class="st2" points="213.4,36.2 213.4,34.9 213.3,34.9 213.3,36.2 	"/>
</g>
<g>
	<circle class="st1" cx="134" cy="46.5" r="1.2"/>
	<rect x="130.3" y="48.8" class="st2" width="7.6" height="1.5"/>
	<polygon class="st2" points="133.3,48 134.7,48.1 135,59.3 132.9,59.3 	"/>
	<polyline class="st2" points="126.7,56.7 129.7,56.5 128,54.6 	"/>
	<path class="st3" d="M128.1,55.8c0,3.4,2.9,5.6,5.9,2.1"/>
	<polyline class="st2" points="140.3,54.6 138.6,56.5 141.5,56.7 	"/>
	<path class="st3" d="M134.2,58c2.9,3.4,5.9,1.2,5.9-2.1"/>
</g>
</svg>
