<svg id="Layer_1" data-name="Layer 1" xmlns="http://www.w3.org/2000/svg" viewBox="0 0 240 63.5"><defs><style>.cls-1,.cls-2{fill:#c6d2d9;}.cls-2{stroke:#c6d2d9;}.cls-2,.cls-4,.cls-5,.cls-6{stroke-miterlimit:10;}.cls-3,.cls-6{fill:#577483;}.cls-4,.cls-5{fill:none;}.cls-4,.cls-5,.cls-6{stroke:#577483;}.cls-4{stroke-width:1.26px;}.cls-5{stroke-width:1.1px;}.cls-6{stroke-width:0.3px;}</style></defs><title>logoMarrriba</title><path class="cls-1" d="M211.6,10.6c0-.5-0.1-1.1-0.6-1.1-1.39,0-4.35,3-7.23,7H203.7c-2.9,4.1-5.6,9.2-6.3,13.2a50.43,50.43,0,0,0,11.74-13.1h0.06C210.7,14.2,211.6,12,211.6,10.6Z"/><path class="cls-2" d="M76,15.8a3,3,0,0,0-1.2.8,0.35,0.35,0,0,0-.2.1,19.75,19.75,0,0,0-3.9,4.7,61,61,0,0,0,4.8-4.1,4.62,4.62,0,0,0,.7-0.7,1.69,1.69,0,0,0,.2-0.5C76.5,16,76.2,15.8,76,15.8Z"/><path class="cls-1" d="M87.8,36a0.69,0.69,0,0,0,.8.5,13,13,0,0,0,6.7-3.1,2.77,2.77,0,0,0-1.3-.3C91.1,33.1,87.8,34.9,87.8,36Z"/><path class="cls-1" d="M222.3,36a0.69,0.69,0,0,0,.8.5,13,13,0,0,0,6.7-3.1,2.77,2.77,0,0,0-1.3-.3C225.6,33.1,222.3,34.9,222.3,36Z"/><path class="cls-1" d="M236.9,36.5a48.73,48.73,0,0,1-7.2,1,1.34,1.34,0,0,1-1.3-.4c-0.3-.3-0.1-0.8-0.6-0.8-1.1,0-2.2,1.7-5.1,1.7-1.2,0-3.1-.5-3.1-2a1.85,1.85,0,0,1,.5-1.2,54.41,54.41,0,0,0-5.5,1.1l-1.2.3-1.3.3a18.72,18.72,0,0,1-4.2.4,4.13,4.13,0,0,1-3.2-1.3,7.64,7.64,0,0,1-4.3,1.8,5.67,5.67,0,0,1-5.6-4.5,24,24,0,0,1-7.2,3l-1.1.3-1.3.3a51.9,51.9,0,0,1-8,1,1.21,1.21,0,0,1-1.3-1.3c0-.6.7-1,0.4-1.5-0.1-.3-3.3.5-6,1.2l-1.3.3-1.3.3a36.76,36.76,0,0,1-6.3.7c-1.4,0-3.1-.5-3.1-2.1a4.27,4.27,0,0,1,.6-2,5.85,5.85,0,0,1-1.3.2,3.17,3.17,0,0,1-2-.6c-1,1.3-4.5,2.5-7.2,3.2l-1.2.3-1.3.3a36.76,36.76,0,0,1-6.3.7c-1.4,0-3.1-.5-3.1-2.1a4.27,4.27,0,0,1,.6-2,5.85,5.85,0,0,1-1.3.2,3.17,3.17,0,0,1-2-.6c-1,1.3-4.5,2.5-7.2,3.2l-1.2.3-1.3.3a36.76,36.76,0,0,1-6.3.7c-1.4,0-3.1-.5-3.1-2.1a4.27,4.27,0,0,1,.6-2,5.85,5.85,0,0,1-1.3.2,3.17,3.17,0,0,1-2-.6c-1,1.3-4.5,2.5-7.2,3.2l-1.1.2v0.1l-1.3.3a48.73,48.73,0,0,1-7.2,1,1.34,1.34,0,0,1-1.3-.4c-0.3-.3-0.1-0.8-0.6-0.8-1.1,0-2.2,1.7-5.1,1.7-1.2,0-3.1-.5-3.1-2a1.84,1.84,0,0,1,.5-1.2,54.41,54.41,0,0,0-5.5,1.1l-1.1.3-1.3.3a46.53,46.53,0,0,1-9,1.3c-2.5,0-5.9-1.1-5.9-5.6a5.5,5.5,0,0,1,.5-2.6c-1.3,1-3.9,3.2-6.6,5.3-2.4,1.9-4.5,3.5-6.2,3.5-1.1,0-1.9-1.3-1.9-2.4a10.31,10.31,0,0,1,2.5-6.3C53.5,26,57.5,22,61,18.4,54.5,22.8,44.3,30.3,35,35a5.83,5.83,0,0,1,.6,2.6c0,2.3-1.9,4.5-3.9,4.5a2.61,2.61,0,0,1-2.6-2.2,0.71,0.71,0,0,1,.7-0.8c0.7,0,1,1.1,2.2,1.1a2.75,2.75,0,0,0,2.3-2.8,2.61,2.61,0,0,0-.6-1.8c-4.8,2-11.4,4.8-21.1,4.8-4.9,0-9.5-1.3-10.5-3.6V54H238.22V36.3ZM61.5,53l-1.1-5.5-2.8,5.9H57.4l-2.9-5.9L53.6,53H52l2-10.1h0.1l3.5,7.2,3.5-7.2h0.1l2,10.1H61.5ZM88,53l-0.8-1.7H82.7L82,53H80.3L85,42.8h0.1L89.8,53H88Zm25.1,0-3-4.1h-0.8V53h-1.7V43.2h2.3a5.28,5.28,0,0,1,3.1.7,2.61,2.61,0,0,1,1.1,2.1,2.77,2.77,0,0,1-2.1,2.7l3.2,4.3h-2.1Zm49.4,0.3h-0.2L156,46.7V53h-1.7V42.8h0.2l6.3,6.6V43.2h1.7V53.3ZM188,53l-0.8-1.7h-4.5L182,53h-1.7l4.8-10.1h0.1L189.9,53H188Z"/><polygon class="cls-1" points="83.4 49.8 86.6 49.8 85 46.2 83.4 49.8"/><path class="cls-1" d="M12.9,39a53.62,53.62,0,0,0,20-4.4c-2-2.7-8.9-4.3-15-4.3-8.7,0-14.5,3.3-14.5,5.5C3.4,37.5,8,39,12.9,39Z"/><path class="cls-1" d="M112.4,46.1c0-1.1-.8-1.5-2.4-1.5h-0.6v3.1h0.8C111.6,47.6,112.4,47.1,112.4,46.1Z"/><polygon class="cls-1" points="183.4 49.8 186.6 49.8 185 46.2 183.4 49.8"/><polygon class="cls-3" points="61.1 42.8 57.6 50 54.1 42.8 54 42.8 52 53 53.6 53 54.7 47.4 57.5 53.3 57.7 53.3 60.5 47.4 61.5 53 63.2 53 61.2 42.8 61.1 42.8"/><path class="cls-3" d="M85,42.8L80.2,53H82l0.8-1.7h4.5L88,53h1.8L85.1,42.9H85V42.8Zm-1.6,7L85,46.1l1.6,3.7H83.4Z"/><path class="cls-3" d="M114.1,45.9a2.61,2.61,0,0,0-1.1-2.1,4.94,4.94,0,0,0-3.1-.7h-2.3V53h1.7V48.9h0.8l3,4.1h2l-3.2-4.3A2.94,2.94,0,0,0,114.1,45.9Zm-4,1.7h-0.8V44.5h0.6c1.6,0,2.4.4,2.4,1.5S111.6,47.6,110.1,47.6Z"/><polygon class="cls-3" points="160.8 49.4 154.5 42.8 154.3 42.8 154.3 53 155.9 53 155.9 46.7 162.3 53.3 162.5 53.3 162.5 43.2 160.8 43.2 160.8 49.4"/><path class="cls-3" d="M185,42.8L180.2,53h1.7l0.8-1.7h4.5L188,53h1.8l-4.7-10.1H185V42.8Zm-1.6,7,1.6-3.7,1.6,3.7h-3.2Z"/><circle class="cls-4" cx="134" cy="46.5" r="1.2"/><rect class="cls-3" x="130.3" y="48.8" width="7.6" height="1.5"/><polygon class="cls-3" points="133.3 48 134.7 48.1 135 59.3 132.9 59.3 133.3 48"/><polyline class="cls-3" points="126.7 56.7 129.7 56.5 128 54.6"/><path class="cls-5" d="M128.1,55.8c0,3.4,2.9,5.6,5.9,2.1"/><polyline class="cls-3" points="140.3 54.6 138.6 56.5 141.5 56.7"/><path class="cls-5" d="M134.2,58c2.9,3.4,5.9,1.2,5.9-2.1"/><path class="cls-6" d="M184.12,20.59a2.65,2.65,0,0,0,1.38-1.14,3.27,3.27,0,0,0,1-1.79,1,1,0,0,0-1-1.08c-1.37,0-2,2.69-2,3.47A0.64,0.64,0,0,0,184.12,20.59Z"/><path class="cls-6" d="M236.81,35.19a44,44,0,0,1-6.22,1,0.49,0.49,0,0,1-.54-0.48c0-.78,1-1.32,1-2a0.9,0.9,0,0,0-.42-0.66,0.76,0.76,0,0,0,.54-0.66c0-.6-1.5-0.66-2.57-0.66a20.64,20.64,0,0,0-6.58,1.5s-4.84.78-7.48,1.38l-1.32.3v0l-1.13.27a19,19,0,0,1-4.13.54,2.76,2.76,0,0,1-2.45-1.2,3.25,3.25,0,0,0,.84-2c0-.48-0.24-1.44-0.84-1.44-1,0-1.32,2.15-1.32,3.47-1.08.78-2.09,1.61-3.47,1.61A3.89,3.89,0,0,1,197,31.42c7.48-4.79,15.55-15.85,15.55-21.29,0-.9-0.48-2-1.37-2-3.11,0-16.63,13.64-16.63,23.57a28.12,28.12,0,0,1-7.06,2.93l-1.32.3v0l-1.13.26c-2.69.66-7.42,1.44-7.78,1-0.48-.6,2.87-2,2.87-2.87a0.71,0.71,0,0,0-.78-0.42,80.55,80.55,0,0,0-9.15,1.68l-1.32.3h0l-1.25.3a29.45,29.45,0,0,1-5.26.84c-1.08,0-2-.24-2-0.72a3.79,3.79,0,0,1,1-2c0.54-.6,1.08-1,1.08-1.44s-0.24-.42-0.72-0.3a18.2,18.2,0,0,1-3.65.66,2.13,2.13,0,0,1-1.61-.54,3.51,3.51,0,0,0,.12-0.78,0.94,0.94,0,0,0-.78-1,1.21,1.21,0,0,0-1,1.32,6.54,6.54,0,0,0,.12.9c-1.14,1-4.49,2-6.64,2.45l-1.32.3v0l-1.13.27a29.42,29.42,0,0,1-5.26.84c-1.08,0-2-.24-2-0.72a3.79,3.79,0,0,1,1-2c0.54-.6,1.08-1,1.08-1.44s-0.24-.42-0.72-0.3a18.19,18.19,0,0,1-3.65.66,2.13,2.13,0,0,1-1.62-.54,3.51,3.51,0,0,0,.12-0.78,0.94,0.94,0,0,0-.78-1,1.21,1.21,0,0,0-1,1.32,6.49,6.49,0,0,0,.12.9c-1.14,1-4.49,2-6.64,2.45l-1.32.3v0l-1.13.27a29.45,29.45,0,0,1-5.26.84c-1.08,0-2-.24-2-0.72a3.79,3.79,0,0,1,1-2c0.54-.6,1.08-1,1.08-1.44s-0.24-.42-0.72-0.3a18.19,18.19,0,0,1-3.65.66,2.13,2.13,0,0,1-1.61-.54,3.48,3.48,0,0,0,.12-0.78,0.94,0.94,0,0,0-.78-1,1.21,1.21,0,0,0-1,1.32,6.54,6.54,0,0,0,.12.9c-1.14,1-4.49,2-6.64,2.45l-1.32.3v0.06l-1,.24a44.08,44.08,0,0,1-6.22,1,0.49,0.49,0,0,1-.54-0.48c0-.78,1-1.32,1-2A0.9,0.9,0,0,0,96.09,33a0.76,0.76,0,0,0,.54-0.66c0-.6-1.5-0.66-2.57-0.66a20.64,20.64,0,0,0-6.58,1.5S82.63,34,80,34.59l-1.32.3v0l-1.13.26a38.69,38.69,0,0,1-6.76,1c-3.41,0-5.26-1.73-5.26-4.49,0-2.09,1.2-4.07,2.39-6.4,2.51-2,6.7-5.26,9-8a4.12,4.12,0,0,0,1.2-2.63,0.73,0.73,0,0,0-.6-0.9,5.59,5.59,0,0,0-2.69,1.5c-4.07,3.17-7.18,7.06-10.29,11.37-2.69,2.27-7.06,6-10,8-1.38,1-2.87,2-3.59,2a0.45,0.45,0,0,1-.3-0.42c0-2.09,11.78-16.75,16.51-22.37,3.05-2.21,6.28-4.72,8.73-6.76,0.72-.6,1.5-1.2,1.5-2a0.84,0.84,0,0,0-1-.78A4.14,4.14,0,0,0,74.08,5.4a84.46,84.46,0,0,0-6.28,6.16C62.06,16,46,27.83,34.13,33.87c-2.81-3.05-9.27-5.32-15.85-5.32C10,28.55,1.89,31.72,1.89,35.9c0,2.93,5.2,4.54,10.71,4.54,9.75,0,16.27-2.81,21.11-4.79a2.42,2.42,0,0,1,.6,1.79A2.74,2.74,0,0,1,32,40.21c-1.14,0-1.44-1.08-2.15-1.08a0.71,0.71,0,0,0-.66.84,2.55,2.55,0,0,0,2.57,2.21c2,0,3.89-2.21,3.89-4.55A6.52,6.52,0,0,0,35,35c9.21-4.67,19.5-12.14,26-16.57C57.4,22,53.39,26,50.88,29.62a10.52,10.52,0,0,0-2.45,6.28c0,1.14.84,2.39,1.91,2.39,1.67,0,3.83-1.68,6.22-3.53,2.63-2,5.26-4.31,6.58-5.26a6.26,6.26,0,0,0-.48,2.63c0,4.49,3.41,5.62,5.86,5.62a46.94,46.94,0,0,0,9-1.26l1.32-.3v0L80,35.9c2.09-.54,5.5-1.08,5.5-1.08A1.59,1.59,0,0,0,85,36c0,1.5,1.91,2,3.11,2,3,0,4.07-1.67,5.14-1.67,0.54,0,.3.48,0.6,0.78a1.37,1.37,0,0,0,1.32.42,44.41,44.41,0,0,0,7.18-1l1.26-.3V36.15l1.07-.24c2.69-.66,6.28-1.91,7.24-3.17a3.16,3.16,0,0,0,2,.6,11.55,11.55,0,0,0,1.32-.18,4,4,0,0,0-.6,2c0,1.56,1.62,2.09,3.05,2.09A35.48,35.48,0,0,0,124,36.5l1.26-.3v0l1.19-.27c2.69-.66,6.28-1.91,7.24-3.17a3.16,3.16,0,0,0,2,.6,11.52,11.52,0,0,0,1.32-.18,4,4,0,0,0-.6,2c0,1.56,1.62,2.09,3.05,2.09a35.48,35.48,0,0,0,6.34-.72l1.26-.3v0l1.19-.27c2.69-.66,6.28-1.91,7.24-3.17a3.16,3.16,0,0,0,2,.6,11.54,11.54,0,0,0,1.32-.18,4,4,0,0,0-.6,2c0,1.56,1.62,2.09,3.05,2.09a35.48,35.48,0,0,0,6.34-.72l1.26-.3h0l1.31-.3c2.69-.66,5.86-1.5,6-1.2,0.3,0.54-.42.9-0.42,1.5a1.22,1.22,0,0,0,1.32,1.32,52.13,52.13,0,0,0,8-1l1.32-.3v0l1.13-.26a24.63,24.63,0,0,0,7.24-3,5.7,5.7,0,0,0,5.62,4.49,7.41,7.41,0,0,0,4.31-1.79,3.92,3.92,0,0,0,3.17,1.32,18.41,18.41,0,0,0,4.19-.42l1.26-.3v0l1.19-.27c2.09-.54,5.5-1.08,5.5-1.08a1.59,1.59,0,0,0-.54,1.2c0,1.5,1.91,2,3.11,2,3,0,4.07-1.67,5.14-1.67,0.54,0,.3.48,0.6,0.78a1.37,1.37,0,0,0,1.32.42,44.41,44.41,0,0,0,7.18-1l1.26-.3V34.89ZM211,9.52a0.87,0.87,0,0,1,.6,1c0,4.37-8.19,14.89-14.24,19.2C198.72,21.67,208.23,9.52,211,9.52ZM74.5,16.7a4.4,4.4,0,0,1,1.38-1,0.47,0.47,0,0,1,.42.3,2.46,2.46,0,0,1-.9,1.26c-1.32,1.14-2.69,2.45-4.79,4.07A17.93,17.93,0,0,1,74.5,16.7ZM12.83,39c-4.9,0-9.51-1.5-9.51-3.23,0-2.15,5.86-5.5,14.53-5.5,6.1,0,13,1.61,15,4.31A52.64,52.64,0,0,1,12.83,39ZM88.55,36.5c-0.3,0-.84-0.06-0.84-0.48,0-1.08,3.35-2.87,6.22-2.87a2.51,2.51,0,0,1,1.32.3A12.76,12.76,0,0,1,88.55,36.5Zm134.51,0c-0.3,0-.84-0.06-0.84-0.48,0-1.08,3.35-2.87,6.22-2.87a2.51,2.51,0,0,1,1.32.3A12.76,12.76,0,0,1,223.06,36.5Z"/></svg>