<?xml version="1.0" encoding="utf-8"?>
<!-- Generator: Adobe Illustrator 19.2.1, SVG Export Plug-In . SVG Version: 6.00 Build 0)  -->
<svg version="1.1" id="Layer_1" xmlns="http://www.w3.org/2000/svg" xmlns:xlink="http://www.w3.org/1999/xlink" x="0px" y="0px"
	 viewBox="0 0 240 63.5" style="enable-background:new 0 0 240 63.5;" xml:space="preserve">
<style type="text/css">
	.st0{fill:#2A3941;}
	.st1{fill:#577483;}
</style>
<title>logoMarrriba</title>
<g>
	<path class="st0" d="M184.1,20.6c0.6-0.2,1.1-0.6,1.4-1.1c0.5-0.5,0.9-1.1,1-1.8c0-0.6-0.4-1-0.9-1.1h-0.1c-1.4,0-2,2.7-2,3.5
		C183.5,20.4,183.8,20.6,184.1,20.6z"/>
	<path class="st0" d="M236.6,34.7c-1.7,0.4-3.7,0.8-6,1c0-0.2,0.2-0.4,0.4-0.6c0.3-0.3,0.6-0.7,0.6-1.2c0-0.2-0.1-0.5-0.2-0.6
		c0.2-0.2,0.3-0.5,0.3-0.8c0-1.1-1.7-1.2-3.1-1.2c0,0,0,0,0,0c-2.3,0.1-4.6,0.6-6.7,1.5c-0.6,0.1-4.9,0.8-7.5,1.4l-1.3,0.3l-1.1,0.3
		c-1.6,0.3-2.8,0.5-4,0.5c-0.7,0.1-1.3-0.2-1.7-0.7c0.4-0.6,0.7-1.3,0.7-2c0-0.9-0.4-1.9-1.3-1.9c-1.5,0-1.8,2.6-1.8,3.7l0,0
		c-1,0.7-1.9,1.4-3,1.4c-0.9,0-1.7-0.4-2.4-1c-0.6-0.7-1-1.5-0.9-2.5c0-0.2,0-0.3,0-0.5c7.6-5,15.7-16,15.7-21.6
		c0-1.2-0.7-2.5-1.9-2.5c-3.4,0-16.8,13.8-17.1,23.8c-2.1,1.2-4.4,2.1-6.7,2.7l-1.3,0.3l-1.1,0.3c-2.3,0.6-5.6,1.1-6.9,1.1
		c0.2-0.2,0.6-0.4,0.8-0.6c1-0.7,1.8-1.2,1.8-2l0-0.2c-0.1-0.3-0.3-0.5-0.6-0.6c-0.3-0.1-0.6-0.2-0.8-0.1c-3.7,0.5-6.5,1-9.1,1.7
		l-2.5,0.6c-1.8,0.4-3.6,0.7-5.2,0.8c-0.9,0-1.4-0.2-1.5-0.2c0.1-0.6,0.4-1.1,0.9-1.6c0.2-0.2,0.3-0.4,0.5-0.5
		c0.4-0.4,0.7-0.7,0.7-1.2c0-0.1,0-0.5-0.3-0.7c-0.3-0.2-0.7-0.2-1.1-0.1c-1.2,0.3-2.4,0.6-3.6,0.7c-0.3,0.1-0.7,0-1-0.2
		c0-0.2,0-0.4,0-0.6c0-0.7-0.5-1.3-1.2-1.5l-0.1,0l-0.1,0c-0.9,0.1-1.6,1-1.4,1.8c0,0.2,0,0.4,0.1,0.5c0,0,0,0.1,0,0.1
		c-1.1,0.8-4,1.7-6.2,2.2l-1.3,0.3l-1.1,0.3c-1.8,0.4-3.6,0.7-5.2,0.8c-0.9,0-1.4-0.2-1.5-0.2c0.1-0.6,0.4-1.1,0.9-1.6
		c0.2-0.2,0.3-0.4,0.5-0.5c0.4-0.4,0.7-0.7,0.7-1.2c0-0.1,0-0.5-0.3-0.7c-0.3-0.2-0.7-0.2-1-0.1c-1.2,0.3-2.4,0.6-3.6,0.7
		c-0.3,0.1-0.7,0-1-0.2c0-0.2,0-0.4,0-0.6c0-0.7-0.5-1.3-1.2-1.5l-0.1,0l-0.1,0c-0.4,0.1-0.8,0.3-1.1,0.6c-0.3,0.4-0.4,0.8-0.3,1.1
		c0,0.2,0,0.4,0.1,0.5c0,0,0,0.1,0,0.1c-1.1,0.8-4,1.7-6.2,2.2l-1.3,0.3l-1.1,0.3c-1.8,0.4-3.6,0.7-5.2,0.8c-0.9,0-1.4-0.2-1.5-0.2
		c0.1-0.6,0.4-1.1,0.9-1.6c0.2-0.2,0.3-0.4,0.5-0.5c0.4-0.4,0.7-0.7,0.7-1.2c0-0.1,0-0.5-0.3-0.7c-0.3-0.2-0.7-0.2-1-0.1
		c-1.2,0.3-2.4,0.6-3.7,0.7c-0.3,0.1-0.7,0-1-0.2c0-0.2,0-0.4,0-0.6c0-0.7-0.5-1.3-1.2-1.5l-0.1,0l-0.1,0c-0.4,0.1-0.8,0.3-1.1,0.6
		c-0.3,0.4-0.4,0.8-0.3,1.1c0,0.2,0,0.4,0.1,0.5c0,0,0,0.1,0,0.1c-1.1,0.8-4,1.7-6.2,2.2l-1.3,0.3l-0.3,0.2l-0.7,0.1
		c-1.7,0.4-3.7,0.8-6.1,1c0-0.2,0.2-0.4,0.4-0.6c0.3-0.3,0.6-0.7,0.6-1.2l0-0.2c-0.1-0.2-0.1-0.3-0.2-0.4c0.1-0.2,0.2-0.5,0.2-0.7
		c0-1.1-1.7-1.2-3.1-1.2c0,0,0,0,0,0c-2.3,0.1-4.6,0.6-6.7,1.5c-0.6,0.1-4.9,0.8-7.5,1.4L79,34.8l-1.1,0.3c-2.6,0.6-4.7,0.9-6.7,1
		c-3.1,0-4.8-1.4-4.8-4c0-1.7,0.9-3.4,1.9-5.4l0.4-0.7l0.4-0.3c2.6-2,6.4-5.1,8.6-7.7c0.8-0.8,1.2-1.8,1.3-2.8c0.1-0.3,0-0.7-0.1-1
		c-0.2-0.3-0.4-0.5-0.7-0.5l-0.1,0l-0.3,0c-1,0.2-2.1,0.8-2.9,1.6c-4,3.1-7,6.8-10.4,11.5c-1.7,1.5-6.8,5.8-9.9,7.9
		c-1.5,1.1-2.6,1.7-3.1,1.9c0.5-2.1,9.7-13.9,16.3-21.9c3.1-2.2,6.3-4.7,8.7-6.8l0.2-0.2c0.7-0.6,1.5-1.3,1.5-2.2
		c0-0.8-0.6-1.3-1.4-1.3l-0.2,0c-1,0.1-1.9,0.6-2.6,1.2c-2.1,1.8-4.2,3.9-6.3,6.2c-1.3,0.9-3.1,2.1-5.2,3.6
		c-7.6,5.3-19.2,13.3-28.4,18.1c-3.1-3.1-9.6-5.2-16-5.2C10,28.1,1.3,31.3,1.3,36c0,3.4,5.8,5,11.2,5c9.7,0,16.2-2.7,20.9-4.7
		c0.2,0.4,0.3,0.8,0.3,1.2c0,1.1-0.8,2.1-1.8,2.3c-0.4,0-0.7-0.2-1-0.5c-0.3-0.3-0.6-0.6-1.1-0.6c-0.7,0-1.2,0.6-1.2,1.2l0,0.2
		c0.2,1.5,1.5,2.6,3.1,2.6c2.3,0,4.4-2.4,4.4-5c0-0.7-0.2-1.5-0.5-2.4c7.2-3.7,15-9,21.2-13.3c-2.3,2.4-4.6,4.9-6.2,7.3
		c-1.5,1.8-2.4,4.1-2.6,6.6c0,1.4,1,2.9,2.4,2.9c1.7,0,3.7-1.5,5.9-3.2l0.6-0.4c1.5-1.2,3.1-2.5,4.4-3.5c0.4-0.3,0.7-0.6,1-0.8
		c-0.1,0.4-0.1,0.8-0.1,1.3c0,5.7,4.9,6.1,6.4,6.1c0,0,0,0,0,0c3.2-0.1,6.2-0.5,9.1-1.3l2.5-0.6c1.4-0.3,3.3-0.7,4.5-0.9
		c-0.1,0.2-0.1,0.4-0.1,0.6c0,1.7,1.9,2.5,3.6,2.5c2,0,3.3-0.8,4.1-1.3c0.3-0.2,0.7-0.4,0.9-0.4c0,0,0,0,0,0c0,0.2,0.1,0.4,0.3,0.6
		c0.4,0.5,1,0.7,1.7,0.6c2.1-0.1,4.3-0.4,7.3-1l1.7-0.4v-0.1l0.7-0.1c2.2-0.6,5.8-1.7,7.2-3c0.6,0.3,1.2,0.5,1.9,0.5
		c0.1,0,0.3,0,0.4,0c-0.1,0.4-0.2,0.9-0.2,1.3c0,1.6,1.3,2.6,3.6,2.6c0,0,0,0,0,0c2.4-0.1,4.5-0.3,6.4-0.7l2.5-0.6
		c2.2-0.6,5.8-1.7,7.2-3c0.6,0.3,1.2,0.5,1.9,0.5c0.1,0,0.3,0,0.4,0c-0.1,0.4-0.2,0.9-0.2,1.3c0,1.6,1.3,2.6,3.6,2.6
		c1.9,0,4-0.2,6.4-0.7l2.5-0.6c2.2-0.6,5.8-1.7,7.2-3c0.6,0.3,1.2,0.5,1.9,0.5c0.1,0,0.3,0,0.4,0c-0.1,0.4-0.2,0.9-0.2,1.3
		c0,1.6,1.3,2.6,3.6,2.6c1.9,0,4-0.2,6.4-0.7l2.6-0.6c1.1-0.3,4.2-1.1,5.4-1.2c0,0,0,0.1-0.1,0.1c-0.1,0.2-0.3,0.6-0.3,0.9
		c-0.1,0.5,0.1,1,0.4,1.3c0.3,0.3,0.7,0.5,1.2,0.5h0.2c2.4-0.1,5-0.4,8.1-1l1.3-0.3l1.1-0.3c2.4-0.6,4.7-1.5,6.8-2.7
		c0.9,2.5,3.2,4.2,5.9,4.2h0c1.6-0.1,3-0.7,4.2-1.6c0.9,0.8,2.1,1.2,3.2,1.1c1.6,0,3-0.1,4.3-0.4l2.5-0.6c1.4-0.3,3.3-0.7,4.4-0.9
		c0,0.2-0.1,0.3-0.1,0.5c0,1.7,1.9,2.5,3.6,2.5c2,0,3.3-0.8,4.1-1.3c0.3-0.2,0.7-0.4,0.9-0.4c0,0,0,0,0,0c0,0.2,0.1,0.4,0.3,0.6
		c0.4,0.5,1,0.7,1.7,0.6c2.1-0.1,4.3-0.4,7.3-1l1.7-0.4V34L236.6,34.7z M228.5,33.6c0.1,0,0.2,0,0.3,0c-1.7,1.3-3.7,2.1-5.7,2.4
		c-0.1,0-0.3,0-0.3,0C222.8,35.4,225.7,33.6,228.5,33.6z M210.9,10c0,0,0.1,0.1,0.1,0.1c0.1,0.1,0.1,0.2,0.1,0.2l0,0.1
		c0,4-7.3,13.4-12.9,18C200.1,20.7,208.6,10.2,210.9,10z M88.3,36c0-0.6,2.8-2.4,5.7-2.4c0.1,0,0.2,0,0.3,0
		c-1.7,1.3-3.7,2.1-5.7,2.4C88.4,36,88.3,36,88.3,36z M73.7,18.1c0.4-0.4,0.7-0.7,1.1-1l0,0c0.2-0.2,0.3-0.3,0.5-0.5
		c-0.1,0.1-0.2,0.2-0.3,0.3C74.6,17.3,74.2,17.7,73.7,18.1C73.7,18.1,73.7,18.1,73.7,18.1z M32,34.4c-6.1,2.6-12.5,4-19.2,4.1
		c-5.2,0-9-1.6-9-2.7c0-1.7,5.5-5,14-5C23.9,30.8,29.8,32.3,32,34.4z M175.8,35c0,0,0-0.1,0-0.1L175.8,35
		C175.8,35,175.8,35,175.8,35z"/>
</g>
<g>
	<polygon class="st1" points="61.1,42.8 57.6,50 54.1,42.8 54,42.8 52,53 53.6,53 54.7,47.4 57.5,53.3 57.7,53.3 60.5,47.4 61.5,53 
		63.2,53 61.2,42.8 	"/>
	<path class="st1" d="M85,42.8L80.2,53H82l0.8-1.7h4.5L88,53h1.8l-4.7-10.1H85V42.8z M83.4,49.8l1.6-3.7l1.6,3.7H83.4z"/>
	<path class="st1" d="M114.1,45.9c0-0.8-0.4-1.6-1.1-2.1c-0.9-0.6-2-0.8-3.1-0.7h-2.3V53h1.7v-4.1h0.8l3,4.1h2l-3.2-4.3
		C113.2,48.4,114.1,47.2,114.1,45.9z M110.1,47.6h-0.8v-3.1h0.6c1.6,0,2.4,0.4,2.4,1.5S111.6,47.6,110.1,47.6z"/>
	<polygon class="st1" points="160.8,49.4 154.5,42.8 154.3,42.8 154.3,53 155.9,53 155.9,46.7 162.3,53.3 162.5,53.3 162.5,43.2 
		160.8,43.2 	"/>
	<path class="st1" d="M185,42.8L180.2,53h1.7l0.8-1.7h4.5L188,53h1.8l-4.7-10.1H185V42.8z M183.4,49.8l1.6-3.7l1.6,3.7H183.4
		L183.4,49.8z"/>
	<path class="st1" d="M141.3,52l-0.7-2.3l-2,1.3l0.8,0.3c-0.3,0.8-1.3,2.7-4.4,3.1l-0.2-8.5h3.1v-1.5h-3.1l0-0.5
		c0.7-0.3,1.2-0.9,1.2-1.7c0-1-0.8-1.8-1.8-1.8c-1,0-1.8,0.8-1.8,1.8c0,0.8,0.5,1.4,1.1,1.7l0,0.5h-2.9v1.5h2.9l-0.3,8.5
		c-2.4-0.3-3.7-1.7-4.1-3.1l0.8-0.3l-2-1.4l-0.8,2.3l0.9-0.3c0.6,1.9,2.5,3.9,6.3,3.9c3.7,0,5.6-1.9,6.3-3.8L141.3,52z M134,41.5
		c0.3,0,0.6,0.3,0.6,0.6c0,0.3-0.3,0.6-0.6,0.6c-0.3,0-0.6-0.3-0.6-0.6C133.4,41.8,133.7,41.5,134,41.5z"/>
</g>
</svg>
