<?xml version="1.0" encoding="utf-8"?>
<!-- Generator: Adobe Illustrator 19.2.1, SVG Export Plug-In . SVG Version: 6.00 Build 0)  -->
<svg version="1.1" id="Layer_1" xmlns="http://www.w3.org/2000/svg" xmlns:xlink="http://www.w3.org/1999/xlink" x="0px" y="0px"
	 viewBox="0 0 240 63.5" style="enable-background:new 0 0 240 63.5;" xml:space="preserve">
<style type="text/css">
	.st0{fill:#C6D2D9;}
	.st1{fill:#C6D2D9;stroke:#C6D2D9;stroke-miterlimit:10;}
	.st2{fill:#577483;}
	.st3{fill:none;stroke:#577483;stroke-width:1.26;stroke-miterlimit:10;}
	.st4{fill:none;stroke:#577483;stroke-width:1.1;stroke-miterlimit:10;}
	.st5{fill:#577483;stroke:#577483;stroke-width:0.3;stroke-miterlimit:10;}
</style>
<title>logoMarrriba</title>
<path class="st0" d="M211.6,90.3c0-0.5-0.1-1.1-0.6-1.1c-1.4,0-4.4,3-7.2,7h-0.1c-2.9,4.1-5.6,9.2-6.3,13.2
	c4.7-3.6,8.6-8.1,11.7-13.1h0.1C210.7,93.9,211.6,91.7,211.6,90.3z"/>
<path class="st1" d="M76,95.5c-0.5,0.2-0.9,0.4-1.2,0.8c-0.1,0-0.1,0-0.2,0.1c-1.5,1.4-2.9,2.9-3.9,4.7c1.7-1.3,3.3-2.7,4.8-4.1
	c0.3-0.2,0.5-0.4,0.7-0.7c0.1-0.2,0.2-0.3,0.2-0.5C76.5,95.7,76.2,95.5,76,95.5z"/>
<path class="st0" d="M87.8,115.7c0.1,0.4,0.4,0.6,0.8,0.5c2.5-0.4,4.8-1.4,6.7-3.1c-0.4-0.2-0.8-0.3-1.3-0.3
	C91.1,112.8,87.8,114.6,87.8,115.7z"/>
<path class="st0" d="M222.3,115.7c0.1,0.4,0.4,0.6,0.8,0.5c2.5-0.4,4.8-1.4,6.7-3.1c-0.4-0.2-0.8-0.3-1.3-0.3
	C225.6,112.8,222.3,114.6,222.3,115.7z"/>
<path class="st0" d="M236.9,116.2c-2.4,0.5-4.8,0.8-7.2,1c-0.5,0.1-1,0-1.3-0.4c-0.3-0.3-0.1-0.8-0.6-0.8c-1.1,0-2.2,1.7-5.1,1.7
	c-1.2,0-3.1-0.5-3.1-2c0-0.4,0.2-0.9,0.5-1.2c-1.9,0.3-3.7,0.6-5.5,1.1l-1.2,0.3l-1.3,0.3c-1.4,0.3-2.8,0.4-4.2,0.4
	c-1.2,0.1-2.4-0.4-3.2-1.3c-1.2,1-2.7,1.7-4.3,1.8c-2.7,0-5-1.9-5.6-4.5c-2.2,1.4-4.7,2.4-7.2,3l-1.1,0.3l-1.3,0.3
	c-2.6,0.5-5.3,0.9-8,1c-0.7,0.1-1.2-0.4-1.3-1.1c0-0.1,0-0.1,0-0.2c0-0.6,0.7-1,0.4-1.5c-0.1-0.3-3.3,0.5-6,1.2l-1.3,0.3l-1.3,0.3
	c-2.1,0.4-4.2,0.6-6.3,0.7c-1.4,0-3.1-0.5-3.1-2.1c0-0.7,0.2-1.4,0.6-2c-0.4,0.1-0.9,0.2-1.3,0.2c-0.7,0-1.4-0.2-2-0.6
	c-1,1.3-4.5,2.5-7.2,3.2l-1.2,0.3l-1.3,0.3c-2.1,0.4-4.2,0.6-6.3,0.7c-1.4,0-3.1-0.5-3.1-2.1c0-0.7,0.2-1.4,0.6-2
	c-0.4,0.1-0.9,0.2-1.3,0.2c-0.7,0-1.4-0.2-2-0.6c-1,1.3-4.5,2.5-7.2,3.2l-1.2,0.3l-1.3,0.3c-2.1,0.4-4.2,0.6-6.3,0.7
	c-1.4,0-3.1-0.5-3.1-2.1c0-0.7,0.2-1.4,0.6-2c-0.4,0.1-0.9,0.2-1.3,0.2c-0.7,0-1.4-0.2-2-0.6c-1,1.3-4.5,2.5-7.2,3.2l-1.1,0.2v0.1
	l-1.3,0.3c-2.4,0.5-4.8,0.8-7.2,1c-0.5,0.1-1,0-1.3-0.4c-0.3-0.3-0.1-0.8-0.6-0.8c-1.1,0-2.2,1.7-5.1,1.7c-1.2,0-3.1-0.5-3.1-2
	c0-0.4,0.2-0.9,0.5-1.2c-1.9,0.3-3.7,0.6-5.5,1.1l-1.1,0.3l-1.3,0.3c-3,0.7-6,1.2-9,1.3c-2.5,0-5.9-1.1-5.9-5.6
	c0-0.9,0.1-1.8,0.5-2.6c-1.3,1-3.9,3.2-6.6,5.3c-2.4,1.9-4.5,3.5-6.2,3.5c-1.1,0-1.9-1.3-1.9-2.4c0.1-2.3,1-4.5,2.5-6.3
	c2.4-3.7,6.4-7.7,9.9-11.3c-6.5,4.4-16.7,11.9-26,16.6c0.4,0.8,0.6,1.7,0.6,2.6c0,2.3-1.9,4.5-3.9,4.5c-1.3,0-2.4-0.9-2.6-2.2
	c0-0.4,0.2-0.7,0.6-0.8c0,0,0.1,0,0.1,0c0.7,0,1,1.1,2.2,1.1c1.4-0.2,2.3-1.4,2.3-2.8c0-0.7-0.2-1.3-0.6-1.8
	c-4.8,2-11.4,4.8-21.1,4.8c-4.9,0-9.5-1.3-10.5-3.6v17.2h236.1V116L236.9,116.2z M61.5,132.7l-1.1-5.5l-2.8,5.9h-0.2l-2.9-5.9
	l-0.9,5.5H52l2-10.1h0.1l3.5,7.2l3.5-7.2h0.1l2,10.1H61.5z M88,132.7l-0.8-1.7h-4.5l-0.7,1.7h-1.7l4.7-10.2h0.1l4.7,10.2H88z
	 M113.1,132.7l-3-4.1h-0.8v4.1h-1.7v-9.8h2.3c1.1-0.1,2.2,0.2,3.1,0.7c0.7,0.5,1.1,1.3,1.1,2.1c0,1.3-0.9,2.4-2.1,2.7l3.2,4.3H113.1
	z M162.5,133h-0.2l-6.3-6.6v6.3h-1.7v-10.2h0.2l6.3,6.6v-6.2h1.7V133z M188,132.7l-0.8-1.7h-4.5l-0.7,1.7h-1.7l4.8-10.1h0.1
	l4.7,10.1H188z"/>
<polygon class="st0" points="83.4,129.5 86.6,129.5 85,125.9 "/>
<path class="st0" d="M12.9,118.7c6.9-0.2,13.7-1.7,20-4.4c-2-2.7-8.9-4.3-15-4.3c-8.7,0-14.5,3.3-14.5,5.5
	C3.4,117.2,8,118.7,12.9,118.7z"/>
<path class="st0" d="M112.4,125.8c0-1.1-0.8-1.5-2.4-1.5h-0.6v3.1h0.8C111.6,127.3,112.4,126.8,112.4,125.8z"/>
<polygon class="st0" points="183.4,129.5 186.6,129.5 185,125.9 "/>
<polygon class="st2" points="61.1,42.8 57.6,50 54.1,42.8 54,42.8 52,53 53.6,53 54.7,47.4 57.5,53.3 57.7,53.3 60.5,47.4 61.5,53 
	63.2,53 61.2,42.8 "/>
<path class="st2" d="M85,42.8L80.2,53H82l0.8-1.7h4.5L88,53h1.8l-4.7-10.1H85V42.8z M83.4,49.8l1.6-3.7l1.6,3.7H83.4z"/>
<path class="st2" d="M114.1,45.9c0-0.8-0.4-1.6-1.1-2.1c-0.9-0.6-2-0.8-3.1-0.7h-2.3V53h1.7v-4.1h0.8l3,4.1h2l-3.2-4.3
	C113.2,48.4,114.1,47.2,114.1,45.9z M110.1,47.6h-0.8v-3.1h0.6c1.6,0,2.4,0.4,2.4,1.5S111.6,47.6,110.1,47.6z"/>
<polygon class="st2" points="160.8,49.4 154.5,42.8 154.3,42.8 154.3,53 155.9,53 155.9,46.7 162.3,53.3 162.5,53.3 162.5,43.2 
	160.8,43.2 "/>
<path class="st2" d="M185,42.8L180.2,53h1.7l0.8-1.7h4.5L188,53h1.8l-4.7-10.1H185V42.8z M183.4,49.8l1.6-3.7l1.6,3.7H183.4
	L183.4,49.8z"/>
<circle class="st3" cx="134" cy="46.5" r="1.2"/>
<rect x="130.3" y="48.8" class="st2" width="7.6" height="1.5"/>
<polygon class="st2" points="133.3,48 134.7,48.1 135,59.3 132.9,59.3 "/>
<polyline class="st2" points="126.7,56.7 129.7,56.5 128,54.6 "/>
<path class="st4" d="M128.1,55.8c0,3.4,2.9,5.6,5.9,2.1"/>
<polyline class="st2" points="140.3,54.6 138.6,56.5 141.5,56.7 "/>
<path class="st4" d="M134.2,58c2.9,3.4,5.9,1.2,5.9-2.1"/>
<path class="st5" d="M184.1,20.6c0.6-0.2,1.1-0.6,1.4-1.1c0.5-0.5,0.9-1.1,1-1.8c0-0.6-0.4-1-0.9-1.1c0,0-0.1,0-0.1,0
	c-1.4,0-2,2.7-2,3.5C183.5,20.4,183.8,20.6,184.1,20.6z"/>
<path class="st5" d="M236.8,35.2c-2,0.5-4.1,0.8-6.2,1c-0.3,0-0.5-0.2-0.5-0.4c0,0,0,0,0,0c0-0.8,1-1.3,1-2c0-0.3-0.2-0.5-0.4-0.7
	c0.3-0.1,0.5-0.4,0.5-0.7c0-0.6-1.5-0.7-2.6-0.7c-2.3,0.1-4.5,0.6-6.6,1.5c0,0-4.8,0.8-7.5,1.4l-1.3,0.3l0,0l-1.1,0.3
	c-1.4,0.3-2.7,0.5-4.1,0.5c-1,0.1-1.9-0.4-2.4-1.2c0.5-0.6,0.8-1.3,0.8-2c0-0.5-0.2-1.4-0.8-1.4c-1,0-1.3,2.1-1.3,3.5
	c-1.1,0.8-2.1,1.6-3.5,1.6c-2.1,0-3.9-1.8-3.8-4c0-0.3,0-0.5,0.1-0.8c7.5-4.8,15.6-15.9,15.6-21.3c0-0.9-0.5-2-1.4-2
	c-3.1,0-16.6,13.6-16.6,23.6c-2.2,1.3-4.6,2.3-7.1,2.9l-1.3,0.3l0,0l-1.1,0.3c-2.7,0.7-7.4,1.4-7.8,1c-0.5-0.6,2.9-2,2.9-2.9
	c-0.1-0.3-0.5-0.5-0.8-0.4c-3.1,0.4-6.1,0.9-9.1,1.7l-1.3,0.3l0,0l-1.2,0.3c-1.7,0.4-3.5,0.7-5.3,0.8c-1.1,0-2-0.2-2-0.7
	c0.1-0.8,0.5-1.4,1-2c0.5-0.6,1.1-1,1.1-1.4s-0.2-0.4-0.7-0.3c-1.2,0.3-2.4,0.6-3.6,0.7c-0.6,0.1-1.2-0.1-1.6-0.5
	c0.1-0.3,0.1-0.5,0.1-0.8c0-0.5-0.3-0.9-0.8-1c-0.6,0.1-1.1,0.7-1,1.3c0,0.3,0.1,0.6,0.1,0.9c-1.1,1-4.5,2-6.6,2.5l-1.3,0.3l0,0
	l-1.1,0.3c-1.7,0.4-3.5,0.7-5.3,0.8c-1.1,0-2-0.2-2-0.7c0.1-0.8,0.5-1.4,1-2c0.5-0.6,1.1-1,1.1-1.4s-0.2-0.4-0.7-0.3
	c-1.2,0.3-2.4,0.6-3.6,0.7c-0.6,0.1-1.2-0.1-1.6-0.5c0.1-0.3,0.1-0.5,0.1-0.8c0-0.5-0.3-0.9-0.8-1c-0.6,0.1-1.1,0.7-1,1.3
	c0,0.3,0.1,0.6,0.1,0.9c-1.1,1-4.5,2-6.6,2.5l-1.3,0.3l0,0l-1.1,0.3c-1.7,0.4-3.5,0.7-5.3,0.8c-1.1,0-2-0.2-2-0.7
	c0.1-0.8,0.5-1.4,1-2c0.5-0.6,1.1-1,1.1-1.4s-0.2-0.4-0.7-0.3c-1.2,0.3-2.4,0.6-3.7,0.7c-0.6,0.1-1.2-0.1-1.6-0.5
	c0.1-0.3,0.1-0.5,0.1-0.8c0-0.5-0.3-0.9-0.8-1c-0.6,0.1-1.1,0.7-1,1.3c0,0.3,0.1,0.6,0.1,0.9c-1.1,1-4.5,2-6.6,2.5l-1.3,0.3v0.1
	l-1,0.2c-2,0.5-4.1,0.8-6.2,1c-0.3,0-0.5-0.2-0.5-0.4c0,0,0,0,0,0c0-0.8,1-1.3,1-2c-0.1-0.3-0.3-0.5-0.5-0.6
	c0.3-0.1,0.5-0.4,0.5-0.7c0-0.6-1.5-0.7-2.6-0.7c-2.3,0.1-4.5,0.6-6.6,1.5c0,0-4.8,0.8-7.5,1.4l-1.3,0.3l0,0l-1.1,0.3
	c-2.2,0.5-4.5,0.9-6.8,1c-3.4,0-5.3-1.7-5.3-4.5c0-2.1,1.2-4.1,2.4-6.4c2.5-2,6.7-5.3,9-8c0.7-0.7,1.1-1.6,1.2-2.6
	c0.1-0.4-0.1-0.8-0.5-0.9c0,0,0,0-0.1,0c-1,0.2-2,0.8-2.7,1.5c-4.1,3.2-7.2,7.1-10.3,11.4c-2.7,2.3-7.1,6-10,8c-1.4,1-2.9,2-3.6,2
	c-0.2-0.1-0.3-0.2-0.3-0.4c0-2.1,11.8-16.8,16.5-22.4c3.1-2.2,6.3-4.7,8.7-6.8c0.7-0.6,1.5-1.2,1.5-2c0-0.5-0.4-0.8-0.9-0.8
	c0,0-0.1,0-0.1,0c-0.9,0.1-1.7,0.5-2.3,1.1c-2.2,1.9-4.3,4-6.3,6.2C62.1,16,46,27.8,34.1,33.9c-2.8-3-9.3-5.3-15.9-5.3
	c-8.3,0-16.4,3.2-16.4,7.4c0,2.9,5.2,4.5,10.7,4.5c9.8,0,16.3-2.8,21.1-4.8c0.4,0.5,0.7,1.1,0.6,1.8c0,1.4-1,2.6-2.3,2.8
	c-1.1,0-1.4-1.1-2.1-1.1c-0.4,0-0.7,0.4-0.7,0.7c0,0,0,0.1,0,0.1c0.2,1.3,1.3,2.2,2.6,2.2c2,0,3.9-2.2,3.9-4.5
	c0-0.9-0.3-1.8-0.7-2.6c9.2-4.7,19.5-12.1,26-16.6C57.4,22,53.4,26,50.9,29.6c-1.5,1.8-2.3,4-2.5,6.3c0,1.1,0.8,2.4,1.9,2.4
	c1.7,0,3.8-1.7,6.2-3.5c2.6-2,5.3-4.3,6.6-5.3c-0.3,0.8-0.5,1.7-0.5,2.6c0,4.5,3.4,5.6,5.9,5.6c3-0.1,6-0.5,9-1.3l1.3-0.3l0,0
	l1.2-0.3c2.1-0.5,5.5-1.1,5.5-1.1C85.2,35.1,85,35.6,85,36c0,1.5,1.9,2,3.1,2c3,0,4.1-1.7,5.1-1.7c0.5,0,0.3,0.5,0.6,0.8
	c0.3,0.4,0.8,0.5,1.3,0.4c2.4-0.1,4.8-0.5,7.2-1l1.3-0.3v-0.1l1.1-0.2c2.7-0.7,6.3-1.9,7.2-3.2c0.6,0.4,1.3,0.6,2,0.6
	c0.4,0,0.9-0.1,1.3-0.2c-0.4,0.6-0.6,1.3-0.6,2c0,1.6,1.6,2.1,3.1,2.1c2.1-0.1,4.2-0.3,6.3-0.7l1.3-0.3l0,0l1.2-0.3
	c2.7-0.7,6.3-1.9,7.2-3.2c0.6,0.4,1.3,0.6,2,0.6c0.4,0,0.9-0.1,1.3-0.2c-0.4,0.6-0.6,1.3-0.6,2c0,1.6,1.6,2.1,3.1,2.1
	c2.1,0,4.3-0.3,6.3-0.7l1.3-0.3l0,0l1.2-0.3c2.7-0.7,6.3-1.9,7.2-3.2c0.6,0.4,1.3,0.6,2,0.6c0.4,0,0.9-0.1,1.3-0.2
	c-0.4,0.6-0.6,1.3-0.6,2c0,1.6,1.6,2.1,3.1,2.1c2.1,0,4.3-0.3,6.3-0.7l1.3-0.3l0,0l1.3-0.3c2.7-0.7,5.9-1.5,6-1.2
	c0.3,0.5-0.4,0.9-0.4,1.5c-0.1,0.7,0.4,1.3,1.1,1.3c0.1,0,0.1,0,0.2,0c2.7-0.1,5.4-0.5,8-1l1.3-0.3l0,0l1.1-0.3c2.6-0.6,5-1.6,7.2-3
	c0.6,2.6,2.9,4.5,5.6,4.5c1.6-0.1,3.1-0.7,4.3-1.8c0.8,0.9,2,1.4,3.2,1.3c1.4,0,2.8-0.1,4.2-0.4l1.3-0.3l0,0l1.2-0.3
	c2.1-0.5,5.5-1.1,5.5-1.1c-0.3,0.3-0.5,0.7-0.5,1.2c0,1.5,1.9,2,3.1,2c3,0,4.1-1.7,5.1-1.7c0.5,0,0.3,0.5,0.6,0.8
	c0.3,0.4,0.8,0.5,1.3,0.4c2.4-0.1,4.8-0.5,7.2-1l1.3-0.3v-1.5L236.8,35.2z M211,9.5c0.4,0.1,0.7,0.6,0.6,1c0,4.4-8.2,14.9-14.2,19.2
	C198.7,21.7,208.2,9.5,211,9.5z M74.5,16.7c0.4-0.4,0.9-0.8,1.4-1c0.2,0,0.4,0.1,0.4,0.3c-0.2,0.5-0.5,0.9-0.9,1.3
	c-1.3,1.1-2.7,2.5-4.8,4.1C71.6,19.6,73,18,74.5,16.7z M12.8,39c-4.9,0-9.5-1.5-9.5-3.2c0-2.2,5.9-5.5,14.5-5.5c6.1,0,13,1.6,15,4.3
	C26.5,37.4,19.7,38.9,12.8,39z M88.6,36.5c-0.3,0-0.8-0.1-0.8-0.5c0-1.1,3.3-2.9,6.2-2.9c0.5,0,0.9,0.1,1.3,0.3
	C93.4,35.1,91,36.2,88.6,36.5z M223.1,36.5c-0.3,0-0.8-0.1-0.8-0.5c0-1.1,3.4-2.9,6.2-2.9c0.5,0,0.9,0.1,1.3,0.3
	C227.9,35.1,225.5,36.2,223.1,36.5z"/>
</svg>
